<svg width="16" height="16" viewBox="0 0 16 16" fill="none" xmlns="http://www.w3.org/2000/svg">
<path d="M8 0.5C3.86675 0.5 0.5 3.86675 0.5 8C0.5 12.1333 3.86675 15.5 8 15.5C12.1333 15.5 15.5 12.1333 15.5 8C15.5 3.86675 12.1333 0.5 8 0.5ZM8 2C11.3226 2 14 4.67741 14 8C14 9.3898 13.5269 10.6629 12.7388 11.6782L4.32178 3.26123C5.33708 2.47305 6.6102 2 8 2ZM3.26123 4.32178L11.6782 12.7388C10.6629 13.5269 9.3898 14 8 14C4.67741 14 2 11.3226 2 8C2 6.6102 2.47305 5.33708 3.26123 4.32178Z" fill="#444444"/>
</svg>
