<svg width="25" height="25" viewBox="0 0 32 32" fill="none" xmlns="http://www.w3.org/2000/svg">
    <mask id="mask0_15_83" style="mask-type:alpha" maskUnits="userSpaceOnUse" x="0" y="0" width="32" height="32">
        <rect width="32" height="32" fill="#D9D9D9" />
    </mask>
    <g mask="url(#mask0_15_83)">
        <path
            d="M19.6 15.2667L13.1667 8.83341C13.5445 8.5223 13.9722 8.28341 14.45 8.11675C14.9278 7.95008 15.4445 7.86675 16 7.86675C17.2889 7.86675 18.3722 8.30564 19.25 9.18341C20.1278 10.0612 20.5667 11.1445 20.5667 12.4334C20.5667 12.989 20.4834 13.5056 20.3167 13.9834C20.15 14.4612 19.9111 14.889 19.6 15.2667ZM7.40002 23.5001C8.80002 22.5223 10.1722 21.7723 11.5167 21.2501C12.8611 20.7279 14.3556 20.4667 16 20.4667C16.8222 20.4667 17.55 20.5279 18.1834 20.6501C18.8167 20.7723 19.3889 20.9223 19.9 21.1001L15.8 17.0001C14.6 16.9556 13.6056 16.5501 12.8167 15.7834C12.0278 15.0167 11.5778 14.0334 11.4667 12.8334L7.26669 8.63341C6.44446 9.63341 5.80558 10.739 5.35002 11.9501C4.89446 13.1612 4.66669 14.5112 4.66669 16.0001C4.66669 17.3556 4.8778 18.6445 5.30002 19.8667C5.72224 21.089 6.42224 22.3001 7.40002 23.5001ZM24.7667 23.3001C25.5445 22.3667 26.1667 21.2834 26.6334 20.0501C27.1 18.8167 27.3334 17.4667 27.3334 16.0001C27.3334 12.7779 26.25 10.0834 24.0834 7.91675C21.9167 5.75008 19.2222 4.66675 16 4.66675C14.4445 4.66675 13.0667 4.90008 11.8667 5.36675C10.6667 5.83341 9.60002 6.44453 8.66669 7.20008L24.7667 23.3001ZM16 29.3334C14.1778 29.3334 12.4556 28.9834 10.8334 28.2834C9.21113 27.5834 7.79446 26.6279 6.58335 25.4167C5.37224 24.2056 4.41669 22.789 3.71669 21.1667C3.01669 19.5445 2.66669 17.8223 2.66669 16.0001C2.66669 14.1556 3.01669 12.4279 3.71669 10.8167C4.41669 9.20564 5.37224 7.79453 6.58335 6.58341C7.79446 5.3723 9.21113 4.41675 10.8334 3.71675C12.4556 3.01675 14.1778 2.66675 16 2.66675C17.8445 2.66675 19.5722 3.01675 21.1834 3.71675C22.7945 4.41675 24.2056 5.3723 25.4167 6.58341C26.6278 7.79453 27.5834 9.20564 28.2834 10.8167C28.9834 12.4279 29.3334 14.1556 29.3334 16.0001C29.3334 17.8223 28.9834 19.5445 28.2834 21.1667C27.5834 22.789 26.6278 24.2056 25.4167 25.4167C24.2056 26.6279 22.7945 27.5834 21.1834 28.2834C19.5722 28.9834 17.8445 29.3334 16 29.3334ZM16 27.3334C17.3111 27.3334 18.5278 27.1445 19.65 26.7667C20.7722 26.389 21.9 25.7779 23.0334 24.9334C21.9 24.1334 20.7445 23.5223 19.5667 23.1001C18.3889 22.6779 17.2 22.4667 16 22.4667C14.8 22.4667 13.6111 22.6779 12.4334 23.1001C11.2556 23.5223 10.1 24.1334 8.96669 24.9334C10.1 25.7779 11.2334 26.389 12.3667 26.7667C13.5 27.1445 14.7111 27.3334 16 27.3334Z"
            fill="#111111" />
    </g>
</svg>